<svg xmlns="http://www.w3.org/2000/svg" viewBox="0 0 271.808 253"><defs></defs><polygon points="6,142 135.90381000000002,217 135.90381000000002,247 6,172" fill="#F9F7F0" stroke="#141E28" stroke-width="1.25" stroke-linejoin="miter"></polygon><polygon points="265.80762000000004,142 135.90381000000002,217 135.90381000000002,247 265.80762000000004,172" fill="#F9F7F0" stroke="#141E28" stroke-width="1.25" stroke-linejoin="miter"></polygon><polygon points="135.90381000000002,67 265.80762000000004,142 135.90381000000002,217 6,142" fill="#F9F7F0" stroke="#141E28" stroke-width="1.25" stroke-linejoin="miter"></polygon><polygon points="135.90381000000002,120 174.0089276000001,142 135.90381000000002,164 97.79869239999994,142" fill="none" stroke="#EC7523" stroke-width="1.25" stroke-dasharray="6 4" stroke-linejoin="miter"></polygon><line x1="135.90381000000002" y1="6" x2="174.0089276000001" y2="28" stroke="#EC7523" stroke-width="1.25"></line><line x1="174.0089276000001" y1="28" x2="135.90381000000002" y2="50" stroke="#EC7523" stroke-width="1.25"></line><line x1="135.90381000000002" y1="50" x2="97.79869239999994" y2="28" stroke="#EC7523" stroke-width="1.25"></line><line x1="97.79869239999994" y1="28" x2="135.90381000000002" y2="6" stroke="#EC7523" stroke-width="1.25"></line><line x1="97.79869239999994" y1="28" x2="97.79869239999994" y2="72" stroke="#EC7523" stroke-width="1.25"></line><line x1="135.90381000000002" y1="50" x2="135.90381000000002" y2="94" stroke="#EC7523" stroke-width="1.25"></line><line x1="174.0089276000001" y1="28" x2="174.0089276000001" y2="72" stroke="#EC7523" stroke-width="1.25"></line><line x1="97.79869239999994" y1="72" x2="135.90381000000002" y2="94" stroke="#EC7523" stroke-width="1.25"></line><line x1="135.90381000000002" y1="94" x2="174.0089276000001" y2="72" stroke="#EC7523" stroke-width="1.25"></line><line x1="135.90381000000002" y1="94" x2="135.90381000000002" y2="164" stroke="#D8D8D3" stroke-width="1.25" stroke-dasharray="6 4"></line><line x1="97.79869239999994" y1="72" x2="97.79869239999994" y2="142" stroke="#D8D8D3" stroke-width="1.25" stroke-dasharray="6 4"></line><line x1="174.0089276000001" y1="72" x2="174.0089276000001" y2="142" stroke="#D8D8D3" stroke-width="1.25" stroke-dasharray="6 4"></line></svg>
